<svg width="8" height="31" viewBox="0 0 8 31" fill="none" xmlns="http://www.w3.org/2000/svg">
<path id="Line 23" d="M4 0.333333C2.52724 0.333333 1.33333 1.52724 1.33333 3C1.33333 4.47276 2.52724 5.66667 4 5.66667C5.47276 5.66667 6.66667 4.47276 6.66667 3C6.66667 1.52724 5.47276 0.333333 4 0.333333ZM3.64645 30.3536C3.84171 30.5488 4.15829 30.5488 4.35355 30.3536L7.53554 27.1716C7.7308 26.9763 7.7308 26.6597 7.53554 26.4645C7.34027 26.2692 7.02369 26.2692 6.82843 26.4645L4 29.2929L1.17157 26.4645C0.976312 26.2692 0.659729 26.2692 0.464467 26.4645C0.269205 26.6597 0.269205 26.9763 0.464467 27.1716L3.64645 30.3536ZM3.5 3L3.5 30L4.5 30L4.5 3L3.5 3Z" fill="#FFFA69"/>
</svg>
