<svg width="20" height="20" viewBox="0 0 20 20" fill="none" xmlns="http://www.w3.org/2000/svg">
<g id="Editor / link-m" clip-path="url(#clip0_3902_27505)">
<g id="Group">
<path id="Vector" d="M14.714 12.3566L13.5356 11.1783L14.714 9.99992C15.0235 9.69039 15.269 9.32291 15.4366 8.91848C15.6041 8.51405 15.6903 8.08059 15.6903 7.64284C15.6903 7.20509 15.6041 6.77162 15.4366 6.36719C15.269 5.96276 15.0235 5.59529 14.714 5.28576C14.4044 4.97622 14.037 4.73068 13.6325 4.56316C13.2281 4.39564 12.7946 4.30942 12.3569 4.30942C11.9191 4.30942 11.4857 4.39564 11.0812 4.56316C10.6768 4.73068 10.3093 4.97622 9.9998 5.28576L8.82147 6.46409L7.64313 5.28576L8.82147 4.10742C9.76172 3.18235 11.0294 2.6663 12.3484 2.67167C13.6675 2.67704 14.9309 3.2034 15.8636 4.1361C16.7963 5.06879 17.3227 6.33225 17.328 7.65127C17.3334 8.97029 16.8174 10.238 15.8923 11.1783L14.714 12.3566ZM12.3565 14.7141L11.1781 15.8924C10.7152 16.3629 10.1638 16.7371 9.55552 16.9934C8.94728 17.2497 8.29431 17.3831 7.63428 17.3858C6.97425 17.3884 6.32022 17.2604 5.70991 17.0091C5.09961 16.7577 4.5451 16.388 4.07839 15.9213C3.61167 15.4546 3.24198 14.9001 2.99064 14.2898C2.7393 13.6795 2.61128 13.0255 2.61396 12.3654C2.61665 11.7054 2.74999 11.0524 3.0063 10.4442C3.2626 9.83596 3.6368 9.28449 4.1073 8.82159L5.28563 7.64326L6.46396 8.82159L5.28563 9.99992C4.97609 10.3095 4.73056 10.6769 4.56304 11.0814C4.39552 11.4858 4.3093 11.9193 4.3093 12.357C4.3093 12.7948 4.39552 13.2282 4.56304 13.6327C4.73056 14.0371 4.97609 14.4046 5.28563 14.7141C5.59517 15.0236 5.96264 15.2692 6.36707 15.4367C6.7715 15.6042 7.20496 15.6904 7.64271 15.6904C8.08047 15.6904 8.51393 15.6042 8.91836 15.4367C9.32279 15.2692 9.69026 15.0236 9.9998 14.7141L11.1781 13.5358L12.3565 14.7141ZM12.3565 6.46409L13.5356 7.64326L7.64313 13.5349L6.46396 12.3566L12.3565 6.46492V6.46409Z" fill="#FFFA69"/>
</g>
</g>
<defs>
<clipPath id="clip0_3902_27505">
<rect width="20" height="20" fill="white"/>
</clipPath>
</defs>
</svg>
