<svg width="32" height="32" viewBox="0 0 32 32" fill="none" xmlns="http://www.w3.org/2000/svg">
<path d="M20 22.6667H12V24.0001C12 26.2092 13.7909 28.0001 16 28.0001C18.2091 28.0001 20 26.2092 20 24.0001V22.6667Z" stroke="white" stroke-width="2" stroke-linecap="round" stroke-linejoin="round"/>
<path d="M6.66683 22.6667H25.3335C26.0699 22.6667 26.6668 22.0697 26.6668 21.3334V20.5523C26.6668 20.1987 26.5264 19.8595 26.2763 19.6095L25.5952 18.9284C25.4276 18.7608 25.3335 18.5335 25.3335 18.2965V13.3333C25.3335 8.17867 21.1548 3.99999 16.0001 4C10.8455 4.00001 6.66683 8.17868 6.66683 13.3333V18.2966C6.66683 18.5336 6.57269 18.7608 6.40512 18.9284L5.72402 19.6095C5.47397 19.8595 5.3335 20.1987 5.3335 20.5523V21.3334C5.3335 22.0697 5.93045 22.6667 6.66683 22.6667Z" stroke="white" stroke-width="2" stroke-linecap="round" stroke-linejoin="round"/>
</svg>
