<svg width="16" height="17" viewBox="0 0 16 17" fill="none" xmlns="http://www.w3.org/2000/svg">
<g id="Group">
<path id="Vector" d="M8.00016 15.1663C4.31816 15.1663 1.3335 12.1817 1.3335 8.49967C1.3335 4.81767 4.31816 1.83301 8.00016 1.83301C11.6822 1.83301 14.6668 4.81767 14.6668 8.49967C14.6668 12.1817 11.6822 15.1663 8.00016 15.1663ZM8.00016 13.833C9.41465 13.833 10.7712 13.2711 11.7714 12.2709C12.7716 11.2707 13.3335 9.91416 13.3335 8.49967C13.3335 7.08519 12.7716 5.72863 11.7714 4.72844C10.7712 3.72824 9.41465 3.16634 8.00016 3.16634C6.58567 3.16634 5.22912 3.72824 4.22893 4.72844C3.22873 5.72863 2.66683 7.08519 2.66683 8.49967C2.66683 9.91416 3.22873 11.2707 4.22893 12.2709C5.22912 13.2711 6.58567 13.833 8.00016 13.833V13.833ZM7.3335 10.4997H8.66683V11.833H7.3335V10.4997ZM8.66683 9.40301V9.83301H7.3335V8.83301C7.3335 8.6562 7.40373 8.48663 7.52876 8.3616C7.65378 8.23658 7.82335 8.16634 8.00016 8.16634C8.18955 8.16633 8.37504 8.11254 8.53505 8.01123C8.69506 7.90992 8.82301 7.76525 8.90401 7.59406C8.98501 7.42288 9.01574 7.23221 8.99262 7.04424C8.96949 6.85627 8.89347 6.67873 8.77338 6.53228C8.6533 6.38583 8.4941 6.27649 8.31431 6.21699C8.13452 6.15748 7.94152 6.15025 7.75778 6.19614C7.57404 6.24204 7.40711 6.33916 7.27641 6.47622C7.14571 6.61328 7.05662 6.78463 7.0195 6.97034L5.7115 6.70834C5.79258 6.30306 5.97984 5.92659 6.25411 5.6174C6.52838 5.30821 6.87984 5.0774 7.27256 4.94855C7.66527 4.81971 8.08515 4.79747 8.48928 4.88408C8.89342 4.9707 9.2673 5.16308 9.57271 5.44156C9.87812 5.72003 10.1041 6.07461 10.2276 6.46905C10.351 6.86349 10.3675 7.28364 10.2754 7.68655C10.1833 8.08946 9.9858 8.46067 9.70318 8.76225C9.42055 9.06383 9.06292 9.28495 8.66683 9.40301V9.40301Z" fill="white"/>
</g>
</svg>
